<svg width="28" height="24" viewBox="0 0 28 24" fill="none" xmlns="http://www.w3.org/2000/svg">
<path fill-rule="evenodd" clip-rule="evenodd" d="M4.2 16.3635L4.36327 16.3557C5.00599 16.2934 5.51593 15.8676 5.59058 15.331L5.6 15.1947V4.6753H18.2L18.3633 4.66743C19.0595 4.59992 19.6 4.10589 19.6 3.50647C19.6 2.90706 19.0595 2.41303 18.3633 2.34551L18.2 2.33765H4.2L4.03673 2.34551C3.39402 2.40783 2.88407 2.83358 2.80942 3.37016L2.8 3.50647V15.1947L2.80942 15.331C2.88407 15.8676 3.39402 16.2934 4.03673 16.3557L4.2 16.3635ZM23.8 21.0388L23.9633 21.031C24.606 20.9686 25.1159 20.5429 25.1906 20.0063L25.2 19.87V8.18176L25.1906 8.04545C25.1222 7.55358 24.688 7.15485 24.121 7.04381L23.9633 7.0208L23.8 7.01294H9.80001L9.63674 7.0208C8.99402 7.08312 8.48408 7.50887 8.40943 8.04545L8.40001 8.18176V19.87L8.40943 20.0063C8.47786 20.4982 8.91205 20.8969 9.479 21.008L9.63674 21.031L9.80001 21.0388H23.8ZM11.2 9.3506V18.7012H22.4V9.3506H11.2Z" fill="black"/>
</svg>
