<svg id="visual" viewBox="0 0 960 540" width="960" height="540" xmlns="http://www.w3.org/2000/svg" xmlns:xlink="http://www.w3.org/1999/xlink" version="1.1"><path d="M0 57L14.5 60C29 63 58 69 87.2 74.8C116.3 80.7 145.7 86.3 174.8 83C204 79.7 233 67.3 262 68C291 68.7 320 82.3 349 81.5C378 80.7 407 65.3 436.2 63C465.3 60.7 494.7 71.3 523.8 70.5C553 69.7 582 57.3 611 56.7C640 56 669 67 698 67.7C727 68.3 756 58.7 785.2 57.2C814.3 55.7 843.7 62.3 872.8 66.5C902 70.7 931 72.3 945.5 73.2L960 74L960 0L945.5 0C931 0 902 0 872.8 0C843.7 0 814.3 0 785.2 0C756 0 727 0 698 0C669 0 640 0 611 0C582 0 553 0 523.8 0C494.7 0 465.3 0 436.2 0C407 0 378 0 349 0C320 0 291 0 262 0C233 0 204 0 174.8 0C145.7 0 116.3 0 87.2 0C58 0 29 0 14.5 0L0 0Z" fill="#fa7268"></path><path d="M0 74L14.5 68C29 62 58 50 87.2 47.2C116.3 44.3 145.7 50.7 174.8 50.7C204 50.7 233 44.3 262 40.3C291 36.3 320 34.7 349 41.2C378 47.7 407 62.3 436.2 63.2C465.3 64 494.7 51 523.8 47C553 43 582 48 611 48.5C640 49 669 45 698 47.5C727 50 756 59 785.2 65.7C814.3 72.3 843.7 76.7 872.8 77C902 77.3 931 73.7 945.5 71.8L960 70L960 0L945.5 0C931 0 902 0 872.8 0C843.7 0 814.3 0 785.2 0C756 0 727 0 698 0C669 0 640 0 611 0C582 0 553 0 523.8 0C494.7 0 465.3 0 436.2 0C407 0 378 0 349 0C320 0 291 0 262 0C233 0 204 0 174.8 0C145.7 0 116.3 0 87.2 0C58 0 29 0 14.5 0L0 0Z" fill="#ef5f67"></path><path d="M0 59L14.5 59.2C29 59.3 58 59.7 87.2 58.3C116.3 57 145.7 54 174.8 48.3C204 42.7 233 34.3 262 33.7C291 33 320 40 349 45.3C378 50.7 407 54.3 436.2 53.3C465.3 52.3 494.7 46.7 523.8 41.7C553 36.7 582 32.3 611 29.7C640 27 669 26 698 26.5C727 27 756 29 785.2 29.8C814.3 30.7 843.7 30.3 872.8 32.3C902 34.3 931 38.7 945.5 40.8L960 43L960 0L945.5 0C931 0 902 0 872.8 0C843.7 0 814.3 0 785.2 0C756 0 727 0 698 0C669 0 640 0 611 0C582 0 553 0 523.8 0C494.7 0 465.3 0 436.2 0C407 0 378 0 349 0C320 0 291 0 262 0C233 0 204 0 174.8 0C145.7 0 116.3 0 87.2 0C58 0 29 0 14.5 0L0 0Z" fill="#e34c67"></path><path d="M0 42L14.5 41.5C29 41 58 40 87.2 40.5C116.3 41 145.7 43 174.8 39.7C204 36.3 233 27.7 262 24.7C291 21.7 320 24.3 349 28.3C378 32.3 407 37.7 436.2 35.3C465.3 33 494.7 23 523.8 18.2C553 13.3 582 13.7 611 14C640 14.3 669 14.7 698 16.2C727 17.7 756 20.3 785.2 23.5C814.3 26.7 843.7 30.3 872.8 30.2C902 30 931 26 945.5 24L960 22L960 0L945.5 0C931 0 902 0 872.8 0C843.7 0 814.3 0 785.2 0C756 0 727 0 698 0C669 0 640 0 611 0C582 0 553 0 523.8 0C494.7 0 465.3 0 436.2 0C407 0 378 0 349 0C320 0 291 0 262 0C233 0 204 0 174.8 0C145.7 0 116.3 0 87.2 0C58 0 29 0 14.5 0L0 0Z" fill="#d53867"></path><path d="M0 30L14.5 27.3C29 24.7 58 19.3 87.2 18.2C116.3 17 145.7 20 174.8 18.8C204 17.7 233 12.3 262 13.5C291 14.7 320 22.3 349 21.8C378 21.3 407 12.7 436.2 12.2C465.3 11.7 494.7 19.3 523.8 21.7C553 24 582 21 611 17.8C640 14.7 669 11.3 698 10.8C727 10.3 756 12.7 785.2 16.3C814.3 20 843.7 25 872.8 24.7C902 24.3 931 18.7 945.5 15.8L960 13L960 0L945.5 0C931 0 902 0 872.8 0C843.7 0 814.3 0 785.2 0C756 0 727 0 698 0C669 0 640 0 611 0C582 0 553 0 523.8 0C494.7 0 465.3 0 436.2 0C407 0 378 0 349 0C320 0 291 0 262 0C233 0 204 0 174.8 0C145.7 0 116.3 0 87.2 0C58 0 29 0 14.5 0L0 0Z" fill="#c62368"></path></svg>