<svg id="visual" viewBox="0 0 960 540" width="960" height="540" xmlns="http://www.w3.org/2000/svg" xmlns:xlink="http://www.w3.org/1999/xlink" version="1.1"><path d="M0 406L17.8 397.3C35.7 388.7 71.3 371.3 106.8 361.3C142.3 351.3 177.7 348.7 213.2 360.3C248.7 372 284.3 398 320 396C355.7 394 391.3 364 426.8 356.2C462.3 348.3 497.7 362.7 533.2 376.8C568.7 391 604.3 405 640 403.3C675.7 401.7 711.3 384.3 746.8 373.8C782.3 363.3 817.7 359.7 853.2 361.8C888.7 364 924.3 372 942.2 376L960 380L960 541L942.2 541C924.3 541 888.7 541 853.2 541C817.7 541 782.3 541 746.8 541C711.3 541 675.7 541 640 541C604.3 541 568.7 541 533.2 541C497.7 541 462.3 541 426.8 541C391.3 541 355.7 541 320 541C284.3 541 248.7 541 213.2 541C177.7 541 142.3 541 106.8 541C71.3 541 35.7 541 17.8 541L0 541Z" fill="#fa7268"></path><path d="M0 385L17.8 376C35.7 367 71.3 349 106.8 360C142.3 371 177.7 411 213.2 417C248.7 423 284.3 395 320 381.2C355.7 367.3 391.3 367.7 426.8 377.5C462.3 387.3 497.7 406.7 533.2 414.2C568.7 421.7 604.3 417.3 640 413.2C675.7 409 711.3 405 746.8 408.7C782.3 412.3 817.7 423.7 853.2 420.2C888.7 416.7 924.3 398.3 942.2 389.2L960 380L960 541L942.2 541C924.3 541 888.7 541 853.2 541C817.7 541 782.3 541 746.8 541C711.3 541 675.7 541 640 541C604.3 541 568.7 541 533.2 541C497.7 541 462.3 541 426.8 541C391.3 541 355.7 541 320 541C284.3 541 248.7 541 213.2 541C177.7 541 142.3 541 106.8 541C71.3 541 35.7 541 17.8 541L0 541Z" fill="#ef5f67"></path><path d="M0 401L17.8 396.7C35.7 392.3 71.3 383.7 106.8 381C142.3 378.3 177.7 381.7 213.2 395.8C248.7 410 284.3 435 320 441.7C355.7 448.3 391.3 436.7 426.8 432C462.3 427.3 497.7 429.7 533.2 427.2C568.7 424.7 604.3 417.3 640 408C675.7 398.7 711.3 387.3 746.8 384C782.3 380.7 817.7 385.3 853.2 397.2C888.7 409 924.3 428 942.2 437.5L960 447L960 541L942.2 541C924.3 541 888.7 541 853.2 541C817.7 541 782.3 541 746.8 541C711.3 541 675.7 541 640 541C604.3 541 568.7 541 533.2 541C497.7 541 462.3 541 426.8 541C391.3 541 355.7 541 320 541C284.3 541 248.7 541 213.2 541C177.7 541 142.3 541 106.8 541C71.3 541 35.7 541 17.8 541L0 541Z" fill="#e34c67"></path><path d="M0 454L17.8 461.8C35.7 469.7 71.3 485.3 106.8 489.3C142.3 493.3 177.7 485.7 213.2 480.2C248.7 474.7 284.3 471.3 320 466.2C355.7 461 391.3 454 426.8 456.5C462.3 459 497.7 471 533.2 474C568.7 477 604.3 471 640 464.5C675.7 458 711.3 451 746.8 445.3C782.3 439.7 817.7 435.3 853.2 443.3C888.7 451.3 924.3 471.7 942.2 481.8L960 492L960 541L942.2 541C924.3 541 888.7 541 853.2 541C817.7 541 782.3 541 746.8 541C711.3 541 675.7 541 640 541C604.3 541 568.7 541 533.2 541C497.7 541 462.3 541 426.8 541C391.3 541 355.7 541 320 541C284.3 541 248.7 541 213.2 541C177.7 541 142.3 541 106.8 541C71.3 541 35.7 541 17.8 541L0 541Z" fill="#d53867"></path><path d="M0 497L17.8 492C35.7 487 71.3 477 106.8 471.5C142.3 466 177.7 465 213.2 472.3C248.7 479.7 284.3 495.3 320 500.7C355.7 506 391.3 501 426.8 502.8C462.3 504.7 497.7 513.3 533.2 512.5C568.7 511.7 604.3 501.3 640 498C675.7 494.7 711.3 498.3 746.8 493.5C782.3 488.7 817.7 475.3 853.2 477C888.7 478.7 924.3 495.3 942.2 503.7L960 512L960 541L942.2 541C924.3 541 888.7 541 853.2 541C817.7 541 782.3 541 746.8 541C711.3 541 675.7 541 640 541C604.3 541 568.7 541 533.2 541C497.7 541 462.3 541 426.8 541C391.3 541 355.7 541 320 541C284.3 541 248.7 541 213.2 541C177.7 541 142.3 541 106.8 541C71.3 541 35.7 541 17.8 541L0 541Z" fill="#c62368"></path></svg>