<svg id="visual" viewBox="0 0 960 540" width="960" height="540" xmlns="http://www.w3.org/2000/svg" xmlns:xlink="http://www.w3.org/1999/xlink" version="1.1"><path d="M502 540L487.2 528.8C472.3 517.7 442.7 495.3 431.5 472.8C420.3 450.3 427.7 427.7 432 405.2C436.3 382.7 437.7 360.3 454.2 337.8C470.7 315.3 502.3 292.7 509.2 270.2C516 247.7 498 225.3 501.8 202.8C505.7 180.3 531.3 157.7 533.5 135.2C535.7 112.7 514.3 90.3 502.7 67.8C491 45.3 489 22.7 488 11.3L487 0L960 0L960 11.3C960 22.7 960 45.3 960 67.8C960 90.3 960 112.7 960 135.2C960 157.7 960 180.3 960 202.8C960 225.3 960 247.7 960 270.2C960 292.7 960 315.3 960 337.8C960 360.3 960 382.7 960 405.2C960 427.7 960 450.3 960 472.8C960 495.3 960 517.7 960 528.8L960 540Z" fill="#C62368" stroke-linecap="round" stroke-linejoin="miter"></path></svg>