<svg id="visual" viewBox="0 0 960 540" width="960" height="540" xmlns="http://www.w3.org/2000/svg" xmlns:xlink="http://www.w3.org/1999/xlink" version="1.1"><path d="M0 51L17.8 47.7C35.7 44.3 71.3 37.7 106.8 37.8C142.3 38 177.7 45 213.2 44.7C248.7 44.3 284.3 36.7 320 44C355.7 51.3 391.3 73.7 426.8 70.7C462.3 67.7 497.7 39.3 533.2 31.3C568.7 23.3 604.3 35.7 640 43.5C675.7 51.3 711.3 54.7 746.8 57.5C782.3 60.3 817.7 62.7 853.2 57C888.7 51.3 924.3 37.7 942.2 30.8L960 24L960 0L942.2 0C924.3 0 888.7 0 853.2 0C817.7 0 782.3 0 746.8 0C711.3 0 675.7 0 640 0C604.3 0 568.7 0 533.2 0C497.7 0 462.3 0 426.8 0C391.3 0 355.7 0 320 0C284.3 0 248.7 0 213.2 0C177.7 0 142.3 0 106.8 0C71.3 0 35.7 0 17.8 0L0 0Z" fill="#C62368" stroke-linecap="round" stroke-linejoin="miter"></path></svg>