<svg id="visual" viewBox="0 0 960 540" width="960" height="540" xmlns="http://www.w3.org/2000/svg" xmlns:xlink="http://www.w3.org/1999/xlink" version="1.1"><path d="M533 540L535.2 528.8C537.3 517.7 541.7 495.3 522.2 472.8C502.7 450.3 459.3 427.7 442 405.2C424.7 382.7 433.3 360.3 447 337.8C460.7 315.3 479.3 292.7 474.2 270.2C469 247.7 440 225.3 450.5 202.8C461 180.3 511 157.7 530 135.2C549 112.7 537 90.3 516.8 67.8C496.7 45.3 468.3 22.7 454.2 11.3L440 0L960 0L960 11.3C960 22.7 960 45.3 960 67.8C960 90.3 960 112.7 960 135.2C960 157.7 960 180.3 960 202.8C960 225.3 960 247.7 960 270.2C960 292.7 960 315.3 960 337.8C960 360.3 960 382.7 960 405.2C960 427.7 960 450.3 960 472.8C960 495.3 960 517.7 960 528.8L960 540Z" fill="#0066FF" stroke-linecap="round" stroke-linejoin="miter"></path></svg>