<svg xmlns="http://www.w3.org/2000/svg" xmlns:xlink="http://www.w3.org/1999/xlink" id="visual" version="1.1" viewBox="0 366 960 175"><path d="M0 382L17.8 381.3C35.7 380.7 71.3 379.3 106.8 384.7C142.3 390 177.7 402 213.2 402.5C248.7 403 284.3 392 320 385.5C355.7 379 391.3 377 426.8 378.3C462.3 379.7 497.7 384.3 533.2 390.8C568.7 397.3 604.3 405.7 640 410.2C675.7 414.7 711.3 415.3 746.8 417.7C782.3 420 817.7 424 853.2 415.7C888.7 407.3 924.3 386.7 942.2 376.3L960 366L960 541L942.2 541C924.3 541 888.7 541 853.2 541C817.7 541 782.3 541 746.8 541C711.3 541 675.7 541 640 541C604.3 541 568.7 541 533.2 541C497.7 541 462.3 541 426.8 541C391.3 541 355.7 541 320 541C284.3 541 248.7 541 213.2 541C177.7 541 142.3 541 106.8 541C71.3 541 35.7 541 17.8 541L0 541Z" fill="#fa7268"/><path d="M0 449L17.8 443.5C35.7 438 71.3 427 106.8 420C142.3 413 177.7 410 213.2 415C248.7 420 284.3 433 320 441.2C355.7 449.3 391.3 452.7 426.8 453.7C462.3 454.7 497.7 453.3 533.2 451.2C568.7 449 604.3 446 640 440.2C675.7 434.3 711.3 425.7 746.8 418.7C782.3 411.7 817.7 406.3 853.2 408.2C888.7 410 924.3 419 942.2 423.5L960 428L960 541L942.2 541C924.3 541 888.7 541 853.2 541C817.7 541 782.3 541 746.8 541C711.3 541 675.7 541 640 541C604.3 541 568.7 541 533.2 541C497.7 541 462.3 541 426.8 541C391.3 541 355.7 541 320 541C284.3 541 248.7 541 213.2 541C177.7 541 142.3 541 106.8 541C71.3 541 35.7 541 17.8 541L0 541Z" fill="#eb5967"/><path d="M0 460L17.8 464C35.7 468 71.3 476 106.8 479.8C142.3 483.7 177.7 483.3 213.2 482.3C248.7 481.3 284.3 479.7 320 477.5C355.7 475.3 391.3 472.7 426.8 472.2C462.3 471.7 497.7 473.3 533.2 475.5C568.7 477.7 604.3 480.3 640 476.8C675.7 473.3 711.3 463.7 746.8 460.2C782.3 456.7 817.7 459.3 853.2 457C888.7 454.7 924.3 447.3 942.2 443.7L960 440L960 541L942.2 541C924.3 541 888.7 541 853.2 541C817.7 541 782.3 541 746.8 541C711.3 541 675.7 541 640 541C604.3 541 568.7 541 533.2 541C497.7 541 462.3 541 426.8 541C391.3 541 355.7 541 320 541C284.3 541 248.7 541 213.2 541C177.7 541 142.3 541 106.8 541C71.3 541 35.7 541 17.8 541L0 541Z" fill="#da3f67"/><path d="M0 492L17.8 493.2C35.7 494.3 71.3 496.7 106.8 497.8C142.3 499 177.7 499 213.2 501C248.7 503 284.3 507 320 504C355.7 501 391.3 491 426.8 489.7C462.3 488.3 497.7 495.7 533.2 501.2C568.7 506.7 604.3 510.3 640 509.2C675.7 508 711.3 502 746.8 502.5C782.3 503 817.7 510 853.2 507C888.7 504 924.3 491 942.2 484.5L960 478L960 541L942.2 541C924.3 541 888.7 541 853.2 541C817.7 541 782.3 541 746.8 541C711.3 541 675.7 541 640 541C604.3 541 568.7 541 533.2 541C497.7 541 462.3 541 426.8 541C391.3 541 355.7 541 320 541C284.3 541 248.7 541 213.2 541C177.7 541 142.3 541 106.8 541C71.3 541 35.7 541 17.8 541L0 541Z" fill="#c62368"/></svg>