<svg xmlns="http://www.w3.org/2000/svg" xmlns:xlink="http://www.w3.org/1999/xlink" id="visual" version="1.1" viewBox="0 788.73 540 172.27"><path d="M0 868L10 855.7C20 843.3 40 818.7 60 808.5C80 798.3 100 802.7 120 810.3C140 818 160 829 180 828.5C200 828 220 816 240 805.5C260 795 280 786 300 789.5C320 793 340 809 360 826.3C380 843.7 400 862.3 420 862.2C440 862 460 843 480 835.8C500 828.7 520 833.3 530 835.7L540 838L540 961L530 961C520 961 500 961 480 961C460 961 440 961 420 961C400 961 380 961 360 961C340 961 320 961 300 961C280 961 260 961 240 961C220 961 200 961 180 961C160 961 140 961 120 961C100 961 80 961 60 961C40 961 20 961 10 961L0 961Z" fill="#fa7268"/><path d="M0 884L10 883.2C20 882.3 40 880.7 60 879.2C80 877.7 100 876.3 120 871.3C140 866.3 160 857.7 180 847.7C200 837.7 220 826.3 240 825.7C260 825 280 835 300 835.3C320 835.7 340 826.3 360 820.5C380 814.7 400 812.3 420 813.8C440 815.3 460 820.7 480 823C500 825.3 520 824.7 530 824.3L540 824L540 961L530 961C520 961 500 961 480 961C460 961 440 961 420 961C400 961 380 961 360 961C340 961 320 961 300 961C280 961 260 961 240 961C220 961 200 961 180 961C160 961 140 961 120 961C100 961 80 961 60 961C40 961 20 961 10 961L0 961Z" fill="#ef5f67"/><path d="M0 861L10 862.2C20 863.3 40 865.7 60 873.5C80 881.3 100 894.7 120 893C140 891.3 160 874.7 180 867.7C200 860.7 220 863.3 240 863.8C260 864.3 280 862.7 300 865.3C320 868 340 875 360 877.5C380 880 400 878 420 876.2C440 874.3 460 872.7 480 875.2C500 877.7 520 884.3 530 887.7L540 891L540 961L530 961C520 961 500 961 480 961C460 961 440 961 420 961C400 961 380 961 360 961C340 961 320 961 300 961C280 961 260 961 240 961C220 961 200 961 180 961C160 961 140 961 120 961C100 961 80 961 60 961C40 961 20 961 10 961L0 961Z" fill="#e34c67"/><path d="M0 878L10 877.7C20 877.3 40 876.7 60 886.2C80 895.7 100 915.3 120 918C140 920.7 160 906.3 180 903.2C200 900 220 908 240 914.8C260 921.7 280 927.3 300 923.2C320 919 340 905 360 896.7C380 888.3 400 885.7 420 882.8C440 880 460 877 480 879.7C500 882.3 520 890.7 530 894.8L540 899L540 961L530 961C520 961 500 961 480 961C460 961 440 961 420 961C400 961 380 961 360 961C340 961 320 961 300 961C280 961 260 961 240 961C220 961 200 961 180 961C160 961 140 961 120 961C100 961 80 961 60 961C40 961 20 961 10 961L0 961Z" fill="#d53867"/><path d="M0 947L10 941C20 935 40 923 60 922.8C80 922.7 100 934.3 120 941C140 947.7 160 949.3 180 950C200 950.7 220 950.3 240 943C260 935.7 280 921.3 300 920C320 918.7 340 930.3 360 933.5C380 936.7 400 931.3 420 924.2C440 917 460 908 480 911.5C500 915 520 931 530 939L540 947L540 961L530 961C520 961 500 961 480 961C460 961 440 961 420 961C400 961 380 961 360 961C340 961 320 961 300 961C280 961 260 961 240 961C220 961 200 961 180 961C160 961 140 961 120 961C100 961 80 961 60 961C40 961 20 961 10 961L0 961Z" fill="#c62368"/></svg>